<?xml version="1.0" encoding="UTF-8"?>
<!DOCTYPE svg PUBLIC "-//W3C//DTD SVG 1.1//EN" "http://www.w3.org/Graphics/SVG/1.1/DTD/svg11.dtd">
<!-- Creator: CorelDRAW 2017 -->
<svg xmlns="http://www.w3.org/2000/svg" xml:space="preserve" width="178px" height="80px" version="1.1" style="shape-rendering:geometricPrecision; text-rendering:geometricPrecision; image-rendering:optimizeQuality; fill-rule:evenodd; clip-rule:evenodd"
viewBox="0 0 178 80.214"
 xmlns:xlink="http://www.w3.org/1999/xlink">
 <defs>
  <style type="text/css">
   <![CDATA[
    .fil2 {fill:#FEFEFE}
    .fil1 {fill:#2E3D49}
    .fil0 {fill:#C11410}
   ]]>
  </style>
    <mask id="id0">
  <linearGradient id="id1" gradientUnits="userSpaceOnUse" x1="34.46" y1="40.21" x2="34.46" y2="25.61">
   <stop offset="0" style="stop-opacity:0.4; stop-color:white"/>
   <stop offset="1" style="stop-opacity:0; stop-color:white"/>
  </linearGradient>
     <rect style="fill:url(#id1)" x="27.308" y="25.945" width="26.345" height="14.423"/>
    </mask>
    <mask id="id2">
  <linearGradient id="id3" gradientUnits="userSpaceOnUse" x1="8.521" y1="37.179" x2="8.522" y2="25.712">
   <stop offset="0" style="stop-opacity:0.4; stop-color:white"/>
   <stop offset="1" style="stop-opacity:0; stop-color:white"/>
  </linearGradient>
     <rect style="fill:url(#id3)" x="0.373" y="25.973" width="30.017" height="11.332"/>
    </mask>
    <mask id="id4">
  <linearGradient id="id5" gradientUnits="userSpaceOnUse" x1="58.694" y1="40.112" x2="58.694" y2="20.668">
   <stop offset="0" style="stop-opacity:0.4; stop-color:white"/>
   <stop offset="1" style="stop-opacity:0; stop-color:white"/>
  </linearGradient>
     <rect style="fill:url(#id5)" x="56.668" y="20.113" width="7.454" height="20.219"/>
    </mask>
 </defs>
 <g id="Слой_x0020_1">
  <metadata id="CorelCorpID_0Corel-Layer"/>
  <g id="_3221946776192">
   <g>
    <path class="fil0" d="M10.355 45.4l0 8.816c0,0.323 0.098,0.42 0.42,0.42l15.393 0c1.565,0 2.786,-1.444 3.518,-2.359 1.124,-1.405 6.148,-8.989 7.313,-10.739l2.382 -3.495c2.38,-3.403 3.594,-2.858 9.177,-2.858l4.486 0.008c0.595,0.01 1.112,0.139 1.112,-0.428l0 -9.235 -14.628 0c-2.176,0 -2.78,-0.055 -4.184,1.759 -2.026,2.615 -3.812,5.439 -5.677,8.176 -0.496,0.745 -0.963,1.373 -1.483,2.155l-2.938 4.339c-0.387,0.561 -1.153,1.6 -1.652,1.987 -0.725,0.562 -1.372,1.034 -2.597,1.041l-9.103 -0.008c-0.668,-0.006 -1.539,-0.204 -1.539,0.421z"/>
    <path class="fil0" d="M135.179 45.68l0 14.274c0,1.504 1.825,1.119 3.779,1.119 1.851,0 1.399,-1.752 1.399,-4.058 0,-1.866 0,-3.731 0,-5.597l3.198 7.716c0.82,2.071 1.05,1.939 2.959,1.939 1.345,0 1.585,-0.864 1.959,-1.819l3.358 -8.116 -0.004 8.26c-0.007,0.567 -0.082,0.874 0.169,1.231 0.488,0.694 2.444,0.444 3.754,0.444 0.511,0 1.119,-0.386 1.119,-0.839l0 -14.834c0,-0.453 -0.608,-0.839 -1.119,-0.839 -6.876,0 -5.239,-1.247 -8.616,7.197 -0.203,0.505 -0.324,0.804 -0.52,1.299 -0.19,0.479 -0.298,1.034 -0.66,1.299l-2.099 -5.317c-2.105,-5.259 -1.003,-4.478 -7.276,-4.478 -0.835,0 -1.4,0.285 -1.4,1.119z"/>
    <path class="fil0" d="M72.907 24.55c0,2.968 0.432,6.986 2.855,8.9 3.799,3.003 7.082,2.575 11.979,2.575 3.135,0 6.087,-1.278 7.673,-3.662 0.73,-1.099 2.048,-4.734 -1.376,-4.734 -2.527,0 -2.485,0.381 -3.555,2.183 -1.402,2.364 -3.787,1.875 -6.801,1.875 -1.318,0 -3.166,-0.369 -3.945,-1.373 -1.194,-1.54 -1.092,-4.008 -1.092,-6.044 0,-6.315 3.765,-5.597 8.396,-5.597 2.662,0 3.194,2.258 3.752,2.964 0.99,1.252 1.449,0.954 3.664,0.954 1.529,0 1.549,-1.642 1.365,-2.762 -0.08,-0.483 -0.329,-1.217 -0.58,-1.661 -2.446,-4.331 -8.093,-3.833 -11.979,-3.833 -6.722,0 -10.356,3.974 -10.356,10.215z"/>
    <path class="fil0" d="M123.285 31.966l0 -7.836c0.879,-0.465 2.222,-1.259 3.498,-1.259 2.745,0 3.358,2.167 3.358,4.897 0,6.654 -5.062,4.348 -6.856,4.198zm-0.42 -11.334c-0.347,-1.49 -0.641,-1.12 -3.919,-1.12 -0.378,0 -0.385,0.067 -0.699,0.14 -0.163,0.339 -0.28,0.612 -0.28,1.12l0 19.031c0,1.543 1.982,1.119 4.198,1.119 1.172,0 1.128,-0.919 1.12,-2.098 -0.007,-1.119 0,-2.24 0,-3.359 2.709,0.631 1.784,0.699 4.897,0.699 7.36,0 9.348,-9.523 5.401,-14.636 -1.876,-2.431 -5.902,-2.891 -9.021,-1.718 -0.612,0.23 -1.137,0.691 -1.697,0.822z"/>
    <path class="fil0" d="M159.948 20.632l0 14.133c0,0.512 0.386,1.12 0.84,1.12 7.128,0 4.856,0.525 8.089,-4.785 0.562,-0.924 0.98,-1.848 1.521,-2.817l1.584 -2.753c0,0.701 -0.107,9.27 0.067,9.728 0.369,0.969 2.075,0.627 3.992,0.627 0.653,0 0.979,-0.327 0.979,-0.98l0 -14.413c0,-0.472 -0.247,-0.98 -0.699,-0.98l-4.618 0c-0.514,0 -1.091,0.433 -1.347,0.752 -0.459,0.571 -4.16,7.778 -5.138,9.416 -0.168,0.281 -0.072,0.143 -0.232,0.328l0 -10.076c-0.289,-0.193 -0.364,-0.42 -0.7,-0.42 -2.536,0 -4.338,-0.456 -4.338,1.12z"/>
    <path class="fil0" d="M161.347 45.4l0 14.834c0,1.235 3.184,0.839 4.758,0.839 0.687,0 1.11,-0.255 1.505,-0.594 0.409,-0.35 1.317,-2.113 1.623,-2.716l3.869 -7.185 -0.002 8.678c-0.024,2.188 0.372,1.817 3.78,1.817 0.512,0 1.12,-0.386 1.12,-0.839l0 -14.834c0,-1.215 -3.011,-0.839 -4.478,-0.839 -1.539,0 -2.042,0.697 -2.566,1.772l-1.552 2.926c-0.319,0.534 -0.517,0.93 -0.779,1.46l-2.38 4.337 0.002 -8.678c0.024,-2.187 -0.372,-1.817 -3.78,-1.817 -0.511,0 -1.12,0.386 -1.12,0.839z"/>
    <path class="fil0" d="M119.087 56.176c0,-0.939 0.757,-1.82 1.679,-1.82l4.898 0c0,2.356 0.364,2.313 -1.73,3.029 -1.705,0.583 -4.847,0.877 -4.847,-1.209zm-3.919 -7.977c0,1.647 0.178,1.4 3.359,1.4 1.373,0 1.362,-1.82 4.198,-1.82 2.356,0 2.939,1.107 2.939,3.079 -3.948,0 -9.282,-0.761 -11.201,2.933 -2.487,4.782 3.093,9.039 9.351,7.113 0.936,-0.289 1.473,-0.669 2.269,-1.09 0.136,1.628 1.127,1.259 3.638,1.259 0.512,0 1.12,-0.386 1.12,-0.839l0 -9.796c0,-6.552 -8.255,-6.99 -12.964,-5.407 -1.312,0.44 -2.709,1.527 -2.709,3.168z"/>
    <path class="fil0" d="M93.898 45.4l0 14.834c0,1.184 2.757,0.839 4.058,0.839 0.677,0 1.119,-0.442 1.119,-1.119l0 -5.318 6.297 0 0 5.458c0,1.348 1.919,0.979 3.779,0.979 1,0 1.399,-0.399 1.399,-1.399l0 -13.854c0,-1.674 -1.982,-1.259 -4.058,-1.259 -0.511,0 -1.12,0.386 -1.12,0.839l0 5.458 -6.297 0 0 -5.178c0,-1.508 -2.048,-1.119 -4.058,-1.119 -0.511,0 -1.119,0.386 -1.119,0.839z"/>
    <path class="fil0" d="M147.633 32.666c-3.32,0 -4.058,-1.785 -4.058,-5.178 0,-2.104 0.631,-4.757 3.079,-4.757l1.399 0c2.463,0 3.079,2.677 3.079,5.037 0,2.708 -0.805,4.898 -3.499,4.898zm-9.375 -5.037c0,5 2.992,8.535 8.256,8.535 3.085,0 5.544,-0.136 7.734,-2.341 0.737,-0.741 1.213,-1.495 1.592,-2.606 1.046,-3.069 0.814,-7.278 -1.572,-9.663 -1.375,-1.374 -2.873,-1.977 -4.87,-2.267 -1.844,-0.268 -4.07,-0.183 -5.808,0.38 -2.112,0.684 -3.885,2.031 -4.653,4.163 -0.35,0.969 -0.679,2.451 -0.679,3.799z"/>
    <path class="fil0" d="M98.516 20.212c0,3.573 -0.712,2.938 5.597,2.938l0 11.615c0,1.567 2.093,1.12 4.478,1.12 0.454,0 0.84,-0.608 0.84,-1.12l0 -11.615c5.68,0 5.737,0.611 5.737,-2.238 0,-0.63 -0.265,-1.4 -0.839,-1.4l-15.114 0c-0.326,0 -0.699,0.373 -0.699,0.7z"/>
    <path class="fil0" d="M163.447 13.775c0,3.467 3.844,4.666 6.752,3.954 1.486,-0.364 3.323,-1.656 3.323,-3.394 0,-1.338 0.073,-1.26 -1.959,-1.26 -0.818,0 -0.906,0.465 -1.212,1.027 -0.509,0.935 -1.205,0.932 -2.007,0.932 -2.133,0 -1.376,-1.959 -2.939,-1.959 -0.567,0 -1.958,-0.214 -1.958,0.7z"/>
   </g>
   <g>
    <path class="fil1" d="M0 18.393l0 9.236c0.993,-1.143 1.45,-3.04 5.427,-3.95 3.41,-0.78 1.29,0.677 4.869,-1.427l22.029 -12.675 23.93 13.713 -0.029 20.262c-0.12,0.753 -0.606,1.428 -1.511,1.428l-11.195 0c-2.662,0 -3.81,-2.247 -4.338,-3.078 -0.138,0.52 -1.021,1.6 -1.371,2.127l-4.226 6.269c0.224,0.84 2.733,4.338 4.758,4.338l18.471 0c5.883,0 7.837,-3.906 7.837,-9.795l0 -26.028c0,-0.444 -1.202,-0.982 -1.776,-1.303l-28.494 -16.422c-2.339,-1.348 -1.637,-1.479 -3.882,-0.194l-30.499 17.499z"/>
    <path class="fil1" d="M0 33.506l0 27.847c0,0.107 0.578,0.573 1.599,1.164l29.635 17.14c1.352,0.818 0.693,0.814 3.043,-0.539l30.374 -17.485 0 -9.096c-0.323,0.51 -1.507,2.004 -2.682,2.776 -2.638,1.732 -5.076,1.003 -6.337,1.779 -7.418,4.281 -15.53,8.561 -22.721,13.11 -1.02,0.645 -1.02,0.072 -3.432,-1.244l-21.083 -12.083c0,-6.413 -0.111,-13.8 -0.009,-20.159 0.014,-0.88 0.432,-1.531 1.409,-1.531l11.614 0c1.658,0 2.988,1.757 3.779,2.939l5.737 -8.396c-0.087,-0.482 -2.294,-4.198 -4.618,-4.198l-19.031 0c-4.668,0 -7.277,3.517 -7.277,7.976z"/>
    <path class="fil1" d="M73.327 51.837c0,3.093 0.036,5.307 2.411,7.524 3.636,3.394 14.661,2.465 14.661,-2.626 0,-1.609 -0.085,-1.679 -2.519,-1.679 -2.701,0 -2.081,2.519 -4.757,2.519l-1.4 0c-4.086,0 -3.359,-6.956 -2.326,-8.344 0.915,-1.232 1.999,-1.172 3.306,-1.172 3.003,0 2.526,2.519 4.758,2.519 2.058,0 2.798,0.223 2.798,-1.399 0,-4.944 -8.09,-5.559 -11.807,-4.392 -3.027,0.95 -5.125,3.693 -5.125,7.05z"/>
   </g>
   <path class="fil2" style="mask:url(#id0)" d="M53.57 25.992l-13.291 -0.039c-3.552,-0.011 -3.688,0.045 -6.116,3.661l-6.848 10.204 9.908 0.543c0.785,-1.006 1.331,-1.992 2.055,-2.982 1.545,-2.113 2.627,-2.685 5.222,-2.679 1.026,0.002 2.053,0 3.079,0 2.022,0 4.044,-0.003 6.067,-0.003l-0.076 -8.705z"/>
   <path class="fil2" style="mask:url(#id2)" d="M30.383 29.762c-0.381,-0.898 -1.269,-1.946 -1.868,-2.523 -0.808,-0.777 -1.469,-1.238 -3.04,-1.255l-17.643 -0.004c-2.869,0.076 -5.06,0.952 -6.057,2.817 -1.051,1.664 -1.494,4.282 -1.377,6.69l7.455 1.734c0.206,-2.295 0.845,-2.529 3.061,-2.524 1.626,0.004 10.175,-0.124 11.045,0.088 1.442,0.353 2.384,1.439 3.23,2.513l5.194 -7.536z"/>
   <polygon class="fil2" style="mask:url(#id4)" points="64.031,20.4 56.824,20.12 56.675,40.325 64.115,39.784 "/>
  </g>
 </g>
</svg>
